<mxfile host="Electron" modified="2024-08-20T16:18:41.000Z" agent="Mozilla/5.0 (Windows NT 10.0; Win64; x64) AppleWebKit/537.36 (KHTML, like Gecko) draw.io/22.1.2 Chrome/114.0.5735.289 Electron/25.9.4 Safari/537.36" etag="2ro2bnARIGGmaIsKQhU5" version="22.1.2" type="device">
  <diagram name="Page-1" id="d7P0gbBFUecXXZFDeA7L">
    <mxGraphModel dx="989" dy="610" grid="1" gridSize="10" guides="1" tooltips="1" connect="1" arrows="1" fold="1" page="1" pageScale="1" pageWidth="1920" pageHeight="1200" math="0" shadow="0">
      <root>
        <mxCell id="0" />
        <mxCell id="1" parent="0" />
        <mxCell id="ERgnH3Cc2y13Eh9ycH47-72" style="edgeStyle=orthogonalEdgeStyle;rounded=0;orthogonalLoop=1;jettySize=auto;html=1;entryX=0.248;entryY=-0.029;entryDx=0;entryDy=0;entryPerimeter=0;" edge="1" parent="1" source="ERgnH3Cc2y13Eh9ycH47-31" target="ERgnH3Cc2y13Eh9ycH47-52">
          <mxGeometry relative="1" as="geometry">
            <mxPoint x="750" y="370" as="targetPoint" />
            <Array as="points">
              <mxPoint x="690" y="335" />
              <mxPoint x="750" y="335" />
              <mxPoint x="750" y="379" />
            </Array>
          </mxGeometry>
        </mxCell>
        <mxCell id="ERgnH3Cc2y13Eh9ycH47-73" style="edgeStyle=orthogonalEdgeStyle;rounded=0;orthogonalLoop=1;jettySize=auto;html=1;entryX=0.752;entryY=0.054;entryDx=0;entryDy=0;entryPerimeter=0;" edge="1" parent="1" source="ERgnH3Cc2y13Eh9ycH47-31" target="ERgnH3Cc2y13Eh9ycH47-52">
          <mxGeometry relative="1" as="geometry">
            <mxPoint x="920" y="370" as="targetPoint" />
            <Array as="points">
              <mxPoint x="870" y="330" />
              <mxPoint x="931" y="330" />
            </Array>
          </mxGeometry>
        </mxCell>
        <mxCell id="ERgnH3Cc2y13Eh9ycH47-31" value="" style="shape=table;startSize=0;container=1;collapsible=0;childLayout=tableLayout;fontSize=16;" vertex="1" parent="1">
          <mxGeometry x="600" y="250" width="480" height="40" as="geometry" />
        </mxCell>
        <mxCell id="ERgnH3Cc2y13Eh9ycH47-32" value="" style="shape=tableRow;horizontal=0;startSize=0;swimlaneHead=0;swimlaneBody=0;strokeColor=inherit;top=0;left=0;bottom=0;right=0;collapsible=0;dropTarget=0;fillColor=none;points=[[0,0.5],[1,0.5]];portConstraint=eastwest;fontSize=16;" vertex="1" parent="ERgnH3Cc2y13Eh9ycH47-31">
          <mxGeometry width="480" height="40" as="geometry" />
        </mxCell>
        <mxCell id="ERgnH3Cc2y13Eh9ycH47-33" value="" style="shape=partialRectangle;html=1;whiteSpace=wrap;connectable=0;strokeColor=inherit;overflow=hidden;fillColor=none;top=0;left=0;bottom=0;right=0;pointerEvents=1;fontSize=16;" vertex="1" parent="ERgnH3Cc2y13Eh9ycH47-32">
          <mxGeometry width="60" height="40" as="geometry">
            <mxRectangle width="60" height="40" as="alternateBounds" />
          </mxGeometry>
        </mxCell>
        <mxCell id="ERgnH3Cc2y13Eh9ycH47-34" value="1" style="shape=partialRectangle;html=1;whiteSpace=wrap;connectable=0;strokeColor=inherit;overflow=hidden;fillColor=none;top=0;left=0;bottom=0;right=0;pointerEvents=1;fontSize=16;" vertex="1" parent="ERgnH3Cc2y13Eh9ycH47-32">
          <mxGeometry x="60" width="60" height="40" as="geometry">
            <mxRectangle width="60" height="40" as="alternateBounds" />
          </mxGeometry>
        </mxCell>
        <mxCell id="ERgnH3Cc2y13Eh9ycH47-35" value="" style="shape=partialRectangle;html=1;whiteSpace=wrap;connectable=0;strokeColor=inherit;overflow=hidden;fillColor=none;top=0;left=0;bottom=0;right=0;pointerEvents=1;fontSize=16;" vertex="1" parent="ERgnH3Cc2y13Eh9ycH47-32">
          <mxGeometry x="120" width="60" height="40" as="geometry">
            <mxRectangle width="60" height="40" as="alternateBounds" />
          </mxGeometry>
        </mxCell>
        <mxCell id="ERgnH3Cc2y13Eh9ycH47-45" style="shape=partialRectangle;html=1;whiteSpace=wrap;connectable=0;strokeColor=inherit;overflow=hidden;fillColor=none;top=0;left=0;bottom=0;right=0;pointerEvents=1;fontSize=16;" vertex="1" parent="ERgnH3Cc2y13Eh9ycH47-32">
          <mxGeometry x="180" width="60" height="40" as="geometry">
            <mxRectangle width="60" height="40" as="alternateBounds" />
          </mxGeometry>
        </mxCell>
        <mxCell id="ERgnH3Cc2y13Eh9ycH47-46" value="4" style="shape=partialRectangle;html=1;whiteSpace=wrap;connectable=0;strokeColor=inherit;overflow=hidden;fillColor=none;top=0;left=0;bottom=0;right=0;pointerEvents=1;fontSize=16;" vertex="1" parent="ERgnH3Cc2y13Eh9ycH47-32">
          <mxGeometry x="240" width="60" height="40" as="geometry">
            <mxRectangle width="60" height="40" as="alternateBounds" />
          </mxGeometry>
        </mxCell>
        <mxCell id="ERgnH3Cc2y13Eh9ycH47-47" style="shape=partialRectangle;html=1;whiteSpace=wrap;connectable=0;strokeColor=inherit;overflow=hidden;fillColor=none;top=0;left=0;bottom=0;right=0;pointerEvents=1;fontSize=16;" vertex="1" parent="ERgnH3Cc2y13Eh9ycH47-32">
          <mxGeometry x="300" width="60" height="40" as="geometry">
            <mxRectangle width="60" height="40" as="alternateBounds" />
          </mxGeometry>
        </mxCell>
        <mxCell id="ERgnH3Cc2y13Eh9ycH47-48" style="shape=partialRectangle;html=1;whiteSpace=wrap;connectable=0;strokeColor=inherit;overflow=hidden;fillColor=none;top=0;left=0;bottom=0;right=0;pointerEvents=1;fontSize=16;" vertex="1" parent="ERgnH3Cc2y13Eh9ycH47-32">
          <mxGeometry x="360" width="60" height="40" as="geometry">
            <mxRectangle width="60" height="40" as="alternateBounds" />
          </mxGeometry>
        </mxCell>
        <mxCell id="ERgnH3Cc2y13Eh9ycH47-49" value="0" style="shape=partialRectangle;html=1;whiteSpace=wrap;connectable=0;strokeColor=inherit;overflow=hidden;fillColor=none;top=0;left=0;bottom=0;right=0;pointerEvents=1;fontSize=16;" vertex="1" parent="ERgnH3Cc2y13Eh9ycH47-32">
          <mxGeometry x="420" width="60" height="40" as="geometry">
            <mxRectangle width="60" height="40" as="alternateBounds" />
          </mxGeometry>
        </mxCell>
        <mxCell id="ERgnH3Cc2y13Eh9ycH47-50" value="Sparse Array" style="text;html=1;align=center;verticalAlign=middle;resizable=0;points=[];autosize=1;strokeColor=none;fillColor=none;" vertex="1" parent="1">
          <mxGeometry x="480" y="255" width="90" height="30" as="geometry" />
        </mxCell>
        <mxCell id="ERgnH3Cc2y13Eh9ycH47-51" value="" style="shape=table;startSize=0;container=1;collapsible=0;childLayout=tableLayout;fontSize=16;" vertex="1" parent="1">
          <mxGeometry x="660" y="380" width="360" height="40" as="geometry" />
        </mxCell>
        <mxCell id="ERgnH3Cc2y13Eh9ycH47-52" value="" style="shape=tableRow;horizontal=0;startSize=0;swimlaneHead=0;swimlaneBody=0;strokeColor=inherit;top=0;left=0;bottom=0;right=0;collapsible=0;dropTarget=0;fillColor=none;points=[[0,0.5],[1,0.5]];portConstraint=eastwest;fontSize=16;" vertex="1" parent="ERgnH3Cc2y13Eh9ycH47-51">
          <mxGeometry width="360" height="40" as="geometry" />
        </mxCell>
        <mxCell id="ERgnH3Cc2y13Eh9ycH47-53" value="3" style="shape=partialRectangle;html=1;whiteSpace=wrap;connectable=0;strokeColor=inherit;overflow=hidden;fillColor=none;top=0;left=0;bottom=0;right=0;pointerEvents=1;fontSize=16;" vertex="1" parent="ERgnH3Cc2y13Eh9ycH47-52">
          <mxGeometry width="60" height="40" as="geometry">
            <mxRectangle width="60" height="40" as="alternateBounds" />
          </mxGeometry>
        </mxCell>
        <mxCell id="ERgnH3Cc2y13Eh9ycH47-54" value="0" style="shape=partialRectangle;html=1;whiteSpace=wrap;connectable=0;strokeColor=inherit;overflow=hidden;fillColor=none;top=0;left=0;bottom=0;right=0;pointerEvents=1;fontSize=16;" vertex="1" parent="ERgnH3Cc2y13Eh9ycH47-52">
          <mxGeometry x="60" width="60" height="40" as="geometry">
            <mxRectangle width="60" height="40" as="alternateBounds" />
          </mxGeometry>
        </mxCell>
        <mxCell id="ERgnH3Cc2y13Eh9ycH47-55" value="2" style="shape=partialRectangle;html=1;whiteSpace=wrap;connectable=0;strokeColor=inherit;overflow=hidden;fillColor=none;top=0;left=0;bottom=0;right=0;pointerEvents=1;fontSize=16;" vertex="1" parent="ERgnH3Cc2y13Eh9ycH47-52">
          <mxGeometry x="120" width="60" height="40" as="geometry">
            <mxRectangle width="60" height="40" as="alternateBounds" />
          </mxGeometry>
        </mxCell>
        <mxCell id="ERgnH3Cc2y13Eh9ycH47-56" value="5" style="shape=partialRectangle;html=1;whiteSpace=wrap;connectable=0;strokeColor=inherit;overflow=hidden;fillColor=none;top=0;left=0;bottom=0;right=0;pointerEvents=1;fontSize=16;" vertex="1" parent="ERgnH3Cc2y13Eh9ycH47-52">
          <mxGeometry x="180" width="60" height="40" as="geometry">
            <mxRectangle width="60" height="40" as="alternateBounds" />
          </mxGeometry>
        </mxCell>
        <mxCell id="ERgnH3Cc2y13Eh9ycH47-57" value="1" style="shape=partialRectangle;html=1;whiteSpace=wrap;connectable=0;strokeColor=inherit;overflow=hidden;fillColor=none;top=0;left=0;bottom=0;right=0;pointerEvents=1;fontSize=16;" vertex="1" parent="ERgnH3Cc2y13Eh9ycH47-52">
          <mxGeometry x="240" width="60" height="40" as="geometry">
            <mxRectangle width="60" height="40" as="alternateBounds" />
          </mxGeometry>
        </mxCell>
        <mxCell id="ERgnH3Cc2y13Eh9ycH47-58" value="4" style="shape=partialRectangle;html=1;whiteSpace=wrap;connectable=0;strokeColor=inherit;overflow=hidden;fillColor=none;top=0;left=0;bottom=0;right=0;pointerEvents=1;fontSize=16;" vertex="1" parent="ERgnH3Cc2y13Eh9ycH47-52">
          <mxGeometry x="300" width="60" height="40" as="geometry">
            <mxRectangle width="60" height="40" as="alternateBounds" />
          </mxGeometry>
        </mxCell>
        <mxCell id="ERgnH3Cc2y13Eh9ycH47-62" value="" style="shape=table;startSize=0;container=1;collapsible=0;childLayout=tableLayout;fontSize=16;" vertex="1" parent="1">
          <mxGeometry x="660" y="510" width="360" height="40" as="geometry" />
        </mxCell>
        <mxCell id="ERgnH3Cc2y13Eh9ycH47-63" value="" style="shape=tableRow;horizontal=0;startSize=0;swimlaneHead=0;swimlaneBody=0;strokeColor=inherit;top=0;left=0;bottom=0;right=0;collapsible=0;dropTarget=0;fillColor=none;points=[[0,0.5],[1,0.5]];portConstraint=eastwest;fontSize=16;" vertex="1" parent="ERgnH3Cc2y13Eh9ycH47-62">
          <mxGeometry width="360" height="40" as="geometry" />
        </mxCell>
        <mxCell id="ERgnH3Cc2y13Eh9ycH47-64" value="Mesh" style="shape=partialRectangle;html=1;whiteSpace=wrap;connectable=0;strokeColor=inherit;overflow=hidden;fillColor=none;top=0;left=0;bottom=0;right=0;pointerEvents=1;fontSize=16;" vertex="1" parent="ERgnH3Cc2y13Eh9ycH47-63">
          <mxGeometry width="60" height="40" as="geometry">
            <mxRectangle width="60" height="40" as="alternateBounds" />
          </mxGeometry>
        </mxCell>
        <mxCell id="ERgnH3Cc2y13Eh9ycH47-65" value="Mesh" style="shape=partialRectangle;html=1;whiteSpace=wrap;connectable=0;strokeColor=inherit;overflow=hidden;fillColor=none;top=0;left=0;bottom=0;right=0;pointerEvents=1;fontSize=16;" vertex="1" parent="ERgnH3Cc2y13Eh9ycH47-63">
          <mxGeometry x="60" width="60" height="40" as="geometry">
            <mxRectangle width="60" height="40" as="alternateBounds" />
          </mxGeometry>
        </mxCell>
        <mxCell id="ERgnH3Cc2y13Eh9ycH47-66" value="Mesh" style="shape=partialRectangle;html=1;whiteSpace=wrap;connectable=0;strokeColor=inherit;overflow=hidden;fillColor=none;top=0;left=0;bottom=0;right=0;pointerEvents=1;fontSize=16;" vertex="1" parent="ERgnH3Cc2y13Eh9ycH47-63">
          <mxGeometry x="120" width="60" height="40" as="geometry">
            <mxRectangle width="60" height="40" as="alternateBounds" />
          </mxGeometry>
        </mxCell>
        <mxCell id="ERgnH3Cc2y13Eh9ycH47-67" value="Mesh" style="shape=partialRectangle;html=1;whiteSpace=wrap;connectable=0;strokeColor=inherit;overflow=hidden;fillColor=none;top=0;left=0;bottom=0;right=0;pointerEvents=1;fontSize=16;" vertex="1" parent="ERgnH3Cc2y13Eh9ycH47-63">
          <mxGeometry x="180" width="60" height="40" as="geometry">
            <mxRectangle width="60" height="40" as="alternateBounds" />
          </mxGeometry>
        </mxCell>
        <mxCell id="ERgnH3Cc2y13Eh9ycH47-68" value="Mesh" style="shape=partialRectangle;html=1;whiteSpace=wrap;connectable=0;strokeColor=inherit;overflow=hidden;fillColor=none;top=0;left=0;bottom=0;right=0;pointerEvents=1;fontSize=16;" vertex="1" parent="ERgnH3Cc2y13Eh9ycH47-63">
          <mxGeometry x="240" width="60" height="40" as="geometry">
            <mxRectangle width="60" height="40" as="alternateBounds" />
          </mxGeometry>
        </mxCell>
        <mxCell id="ERgnH3Cc2y13Eh9ycH47-69" value="Mesh" style="shape=partialRectangle;html=1;whiteSpace=wrap;connectable=0;strokeColor=inherit;overflow=hidden;fillColor=none;top=0;left=0;bottom=0;right=0;pointerEvents=1;fontSize=16;" vertex="1" parent="ERgnH3Cc2y13Eh9ycH47-63">
          <mxGeometry x="300" width="60" height="40" as="geometry">
            <mxRectangle width="60" height="40" as="alternateBounds" />
          </mxGeometry>
        </mxCell>
        <mxCell id="ERgnH3Cc2y13Eh9ycH47-70" value="Dense Array" style="text;html=1;align=center;verticalAlign=middle;resizable=0;points=[];autosize=1;strokeColor=none;fillColor=none;" vertex="1" parent="1">
          <mxGeometry x="480" y="385" width="90" height="30" as="geometry" />
        </mxCell>
        <mxCell id="ERgnH3Cc2y13Eh9ycH47-71" value="Mesh List" style="text;html=1;align=center;verticalAlign=middle;resizable=0;points=[];autosize=1;strokeColor=none;fillColor=none;" vertex="1" parent="1">
          <mxGeometry x="490" y="515" width="70" height="30" as="geometry" />
        </mxCell>
        <mxCell id="ERgnH3Cc2y13Eh9ycH47-75" value="" style="endArrow=classic;html=1;rounded=0;entryX=0.085;entryY=0.033;entryDx=0;entryDy=0;entryPerimeter=0;" edge="1" parent="1" target="ERgnH3Cc2y13Eh9ycH47-63">
          <mxGeometry width="50" height="50" relative="1" as="geometry">
            <mxPoint x="750" y="420" as="sourcePoint" />
            <mxPoint x="810" y="420" as="targetPoint" />
            <Array as="points">
              <mxPoint x="750" y="470" />
              <mxPoint x="690" y="470" />
            </Array>
          </mxGeometry>
        </mxCell>
        <mxCell id="ERgnH3Cc2y13Eh9ycH47-76" value="" style="endArrow=classic;html=1;rounded=0;entryX=0.254;entryY=0.02;entryDx=0;entryDy=0;entryPerimeter=0;exitX=0.778;exitY=1;exitDx=0;exitDy=0;exitPerimeter=0;" edge="1" parent="1" source="ERgnH3Cc2y13Eh9ycH47-52" target="ERgnH3Cc2y13Eh9ycH47-63">
          <mxGeometry width="50" height="50" relative="1" as="geometry">
            <mxPoint x="940" y="430" as="sourcePoint" />
            <mxPoint x="701" y="521" as="targetPoint" />
            <Array as="points">
              <mxPoint x="940" y="480" />
              <mxPoint x="751" y="480" />
            </Array>
          </mxGeometry>
        </mxCell>
        <mxCell id="ERgnH3Cc2y13Eh9ycH47-77" value="Entity[id = 4]" style="shape=umlActor;verticalLabelPosition=bottom;verticalAlign=top;html=1;outlineConnect=0;" vertex="1" parent="1">
          <mxGeometry x="670" y="70" width="30" height="60" as="geometry" />
        </mxCell>
        <mxCell id="ERgnH3Cc2y13Eh9ycH47-83" value="" style="endArrow=classic;html=1;rounded=0;entryX=0.563;entryY=0;entryDx=0;entryDy=0;entryPerimeter=0;" edge="1" parent="1" source="ERgnH3Cc2y13Eh9ycH47-77" target="ERgnH3Cc2y13Eh9ycH47-32">
          <mxGeometry width="50" height="50" relative="1" as="geometry">
            <mxPoint x="880" y="100" as="sourcePoint" />
            <mxPoint x="870" y="240" as="targetPoint" />
            <Array as="points">
              <mxPoint x="870" y="100" />
              <mxPoint x="870" y="150" />
            </Array>
          </mxGeometry>
        </mxCell>
        <mxCell id="ERgnH3Cc2y13Eh9ycH47-85" style="edgeStyle=orthogonalEdgeStyle;rounded=0;orthogonalLoop=1;jettySize=auto;html=1;endArrow=cross;endFill=0;" edge="1" parent="1">
          <mxGeometry relative="1" as="geometry">
            <mxPoint x="921" y="210" as="targetPoint" />
            <mxPoint x="980" y="100" as="sourcePoint" />
            <Array as="points">
              <mxPoint x="921" y="100" />
            </Array>
          </mxGeometry>
        </mxCell>
        <mxCell id="ERgnH3Cc2y13Eh9ycH47-84" value="Entity[id = 3]" style="shape=umlActor;verticalLabelPosition=bottom;verticalAlign=top;html=1;outlineConnect=0;" vertex="1" parent="1">
          <mxGeometry x="990" y="70" width="30" height="60" as="geometry" />
        </mxCell>
        <mxCell id="ERgnH3Cc2y13Eh9ycH47-86" value="No Mesh Component" style="text;html=1;align=center;verticalAlign=middle;resizable=0;points=[];autosize=1;strokeColor=none;fillColor=none;" vertex="1" parent="1">
          <mxGeometry x="920" y="190" width="140" height="30" as="geometry" />
        </mxCell>
      </root>
    </mxGraphModel>
  </diagram>
</mxfile>
